<?xml version="1.0" encoding="utf-8"?>
<!-- Generator: Adobe Illustrator 27.5.0, SVG Export Plug-In . SVG Version: 6.00 Build 0)  -->
<svg version="1.1" xmlns="http://www.w3.org/2000/svg" xmlns:xlink="http://www.w3.org/1999/xlink" x="0px" y="0px"
	 viewBox="0 0 500 500" style="enable-background:new 0 0 500 500;" xml:space="preserve">
<g id="BACKGROUND">
	<rect style="fill:#F3FAFF;" width="500" height="500"/>
</g>
<g id="OBJECTS">
	<g>
		<g>
			<g>
				<ellipse style="fill:#E8E7E6;" cx="257.648" cy="433.457" rx="221.183" ry="12.457"/>
				<ellipse style="fill:#E8E7E6;" cx="250.452" cy="440.577" rx="158.571" ry="11.773"/>
				<g>
					<g>
						<g>
							<g>
								<g>
									<path style="fill:#A34ADD;" d="M90.121,330.194c0,0-28.363-8.838-22.984-30.505c5.379-21.666-9.78-8.019-15.159-21.841
										c-5.379-13.823,9.291-20.098,6.846-31.2c-2.445-11.102-14.126-19.307-8.041-29.926
										c6.085-10.619,23.037,2.253,28.253,15.446c3.586,3.861,11.736,5.149,18.256,8.367c6.52,3.218,11.021,11.584,7.14,21.238
										c-3.88,9.654,12.746,13.515,16.332,20.595c3.586,7.079-3.749,13.998-3.016,23.41c0.733,9.412,3.178,20.407-4.157,27.097
										S90.121,330.194,90.121,330.194z"/>
								</g>
								<g>
									<path style="fill:#C084EF;" d="M110.817,334.549c-4.066-12.88-27.548-84.745-53.495-112.295
										c-0.27-0.286-0.253-0.733,0.036-1c0.29-0.267,0.743-0.247,1.013,0.036c26.024,27.632,49.501,99.203,53.756,112.653
										C111.709,334.184,111.269,334.379,110.817,334.549z"/>
									<g>
										<path style="fill:#C084EF;" d="M76.837,249.537l5.387-12.752c0.153-0.361-0.02-0.775-0.385-0.925
											c-0.365-0.145-0.784,0.019-0.937,0.381l-4.93,11.669l-12.844-2.677c-0.383-0.069-0.767,0.162-0.849,0.546
											c-0.081,0.383,0.167,0.758,0.553,0.838L76.837,249.537z"/>
									</g>
									<g>
										<path style="fill:#C084EF;" d="M92.006,281.205l9.765-20.255c0.17-0.352,0.018-0.775-0.339-0.942
											c-0.358-0.17-0.784-0.017-0.955,0.334l-9.272,19.235l-28.068-6.229c-0.39-0.077-0.768,0.156-0.856,0.536
											c-0.087,0.381,0.157,0.76,0.543,0.845L92.006,281.205z"/>
									</g>
									<g>
										<path style="fill:#C084EF;" d="M103.939,311.795l10.056-20.674c0.171-0.352,0.021-0.775-0.336-0.945
											c-0.358-0.169-0.784-0.019-0.956,0.331l-9.516,19.564l-23.85-7.569c-0.377-0.121-0.781,0.084-0.901,0.456
											c-0.122,0.371,0.085,0.771,0.462,0.889L103.939,311.795z"/>
									</g>
								</g>
							</g>
							<g>
								<g>
									<path style="fill:#522EBF;" d="M149.304,333.732c0,0,18.7-16.74,6.771-31.568c-11.929-14.828,4.663-9.606,3.848-22.149
										c-0.815-12.543-14.383-12.249-16.484-21.667c-2.101-9.418,3.961-19.833-4.545-25.894
										c-8.506-6.061-16.958,9.797-16.243,21.798c-1.379,4.233-7.203,8.077-11.076,12.84c-3.873,4.763-4.34,12.79,2.12,18.878
										c6.459,6.088-4.977,14.883-5.2,21.598c-0.223,6.715,7.918,9.484,10.732,17c2.814,7.516,4.877,16.851,12.937,19.444
										C140.223,346.605,149.304,333.732,149.304,333.732z"/>
								</g>
								<g>
									<g>
										<path style="fill:#7B63E0;" d="M134.54,346.774c-0.298,0-0.558-0.217-0.602-0.517
											c-0.105-0.737-10.42-74.158,0.745-107.625c0.106-0.315,0.449-0.489,0.768-0.382c0.319,0.104,0.493,0.443,0.388,0.758
											c-11.079,33.204-0.802,106.346-0.696,107.081c0.047,0.329-0.185,0.633-0.518,0.678
											C134.596,346.772,134.567,346.774,134.54,346.774z"/>
									</g>
									<g>
										<path style="fill:#7B63E0;" d="M130.583,266.879l-8.733-7.951c-0.247-0.224-0.262-0.604-0.035-0.848
											c0.229-0.243,0.614-0.259,0.859-0.033l7.993,7.275l8.944-6.559c0.269-0.199,0.651-0.142,0.851,0.124
											c0.2,0.265,0.144,0.642-0.126,0.84L130.583,266.879z"/>
									</g>
									<g>
										<path style="fill:#7B63E0;" d="M130.258,296.609l-14.805-12.205c-0.258-0.213-0.293-0.591-0.077-0.847
											c0.216-0.254,0.6-0.285,0.856-0.076l14.059,11.592l19.41-14.622c0.266-0.204,0.648-0.151,0.852,0.112
											c0.204,0.264,0.153,0.641-0.115,0.841L130.258,296.609z"/>
									</g>
									<g>
										<path style="fill:#7B63E0;" d="M132.04,324.376l-15.181-12.426c-0.258-0.213-0.294-0.591-0.08-0.845
											c0.215-0.256,0.6-0.29,0.856-0.08L132,322.785l15.676-14.183c0.248-0.225,0.632-0.207,0.859,0.036
											c0.227,0.245,0.21,0.624-0.038,0.848L132.04,324.376z"/>
									</g>
								</g>
							</g>
							<g>
								<g>
									<path style="fill:#35DBC3;" d="M124.907,388.759c0,0-19.233-54.272-94.508-38.107
										C55.215,360.896,69.278,399.475,124.907,388.759z"/>
								</g>
								<g>
									<g>
										<path style="fill:#83F2E5;" d="M126.076,388.78c-12.03-8.532-53.669-36.5-83.799-37.422
											c-0.007-0.001-0.014-0.001-0.022-0.001c-0.378,0-0.69,0.297-0.702,0.673c-0.012,0.381,0.292,0.702,0.68,0.713
											c29.428,0.901,70.206,28.104,82.638,36.889C125.23,389.293,125.642,389.017,126.076,388.78z"/>
									</g>
									<g>
										<path style="fill:#83F2E5;" d="M57.422,364.349c-0.258,0-0.507-0.142-0.629-0.384c-0.173-0.343-0.032-0.759,0.316-0.93
											l10.762-5.285c-2.38-3.215-5.818-7.806-6.223-8.2c-0.312-0.227-0.356-0.643-0.126-0.951
											c0.23-0.311,0.693-0.352,1.003-0.129c0.414,0.301,4.019,5.13,6.97,9.127l0.49,0.663l-12.251,6.015
											C57.634,364.325,57.527,364.349,57.422,364.349z"/>
									</g>
									<g>
										<path style="fill:#83F2E5;" d="M78.653,378.056c-0.233,0-0.46-0.115-0.594-0.322c-0.208-0.324-0.111-0.751,0.216-0.957
											l13.395-8.392l-1.993-11.93c-0.063-0.378,0.196-0.735,0.579-0.797c0.38-0.064,0.744,0.193,0.807,0.571l2.143,12.836
											l-14.179,8.883C78.912,378.021,78.782,378.056,78.653,378.056z"/>
									</g>
									<g>
										<path style="fill:#83F2E5;" d="M96.783,387.135c-0.25,0-0.492-0.132-0.619-0.365c-0.184-0.336-0.057-0.756,0.284-0.938
											l13.218-7.044l-1.378-9.557c-0.055-0.378,0.212-0.729,0.595-0.783c0.381-0.054,0.74,0.209,0.794,0.589l1.517,10.514
											l-14.079,7.5C97.01,387.108,96.895,387.135,96.783,387.135z"/>
									</g>
								</g>
							</g>
							<g>
								<g>
									<path style="fill:#FFD31A;" d="M110.819,367.644c0,0-2.141-65.544-89.65-73.343
										C44.626,313.819,46.574,360.543,110.819,367.644z"/>
								</g>
								<g>
									<g>
										<path style="fill:#FFE578;" d="M114.272,373.266c-0.297,0-0.589-0.138-0.772-0.395
											c-0.422-0.591-42.623-59.238-80.225-72.171c-0.492-0.169-0.752-0.698-0.58-1.184c0.17-0.488,0.708-0.746,1.201-0.573
											c38.173,13.127,80.72,72.26,81.146,72.855c0.3,0.42,0.198,1.002-0.228,1.299
											C114.65,373.212,114.461,373.266,114.272,373.266z"/>
									</g>
									<g>
										<path style="fill:#FFE578;" d="M46.071,318.497c-0.456,0-0.857-0.327-0.931-0.786c-0.082-0.507,0.269-0.984,0.784-1.066
											l13.373-2.094c-1.466-4.269-3.56-10.259-3.869-10.844c-0.307-0.417-0.192-0.962,0.229-1.266
											c0.419-0.304,1.035-0.175,1.34,0.238c0.287,0.387,1.782,4.533,4.445,12.321l0.357,1.046l-15.581,2.439
											C46.169,318.493,46.12,318.497,46.071,318.497z"/>
									</g>
									<g>
										<path style="fill:#FFE578;" d="M64.43,340.573c-0.416,0-0.798-0.275-0.91-0.691c-0.135-0.496,0.164-1.008,0.667-1.14
											l17.389-4.589l1.95-13.564c0.074-0.507,0.55-0.846,1.067-0.791c0.516,0.073,0.874,0.544,0.802,1.053l-2.125,14.782
											l-18.594,4.909C64.593,340.562,64.511,340.573,64.43,340.573z"/>
									</g>
									<g>
										<path style="fill:#FFE578;" d="M81.015,356.569c-0.443,0-0.838-0.309-0.925-0.755c-0.1-0.506,0.236-0.993,0.747-1.091
											l16.725-3.187l1.793-10.77c0.084-0.507,0.567-0.866,1.083-0.767c0.514,0.084,0.862,0.562,0.778,1.069l-2.005,12.05
											l-18.016,3.434C81.134,356.563,81.074,356.569,81.015,356.569z"/>
									</g>
								</g>
							</g>
							<g>
								<g>
									<path style="fill:#522EBF;" d="M119.528,387.522c0,0-20.776-6.474-16.836-22.345c3.94-15.871-7.164-5.874-11.104-15.999
										c-3.94-10.125,6.806-14.722,5.015-22.854c-1.791-8.132-10.347-14.143-5.89-21.922c4.457-7.779,16.875,1.65,20.696,11.314
										c2.627,2.829,8.597,3.772,13.373,6.129c4.776,2.357,8.073,8.486,5.23,15.557c-2.842,7.072,9.337,9.9,11.964,15.086
										c2.627,5.186-2.746,10.254-2.209,17.148c0.537,6.895,2.329,14.949-3.045,19.849
										C131.348,394.386,119.528,387.522,119.528,387.522z"/>
								</g>
								<g>
									<path style="fill:#7B63E0;" d="M135.811,390.149c-3.176-10.029-20.353-62.305-39.4-82.53
										c-0.271-0.285-0.724-0.302-1.012-0.036c-0.29,0.266-0.306,0.714-0.037,1c18.986,20.159,36.18,72.796,39.147,82.194
										C134.966,390.619,135.398,390.404,135.811,390.149z"/>
									<g>
										<path style="fill:#7B63E0;" d="M109.913,328.656l-10.415-2.171c-0.387-0.08-0.634-0.456-0.553-0.838
											c0.082-0.383,0.46-0.621,0.849-0.546l9.252,1.928l3.551-8.403c0.152-0.362,0.572-0.526,0.937-0.381
											c0.365,0.151,0.538,0.565,0.385,0.925L109.913,328.656z"/>
									</g>
									<g>
										<path style="fill:#7B63E0;" d="M121.016,351.854l-21.526-4.776c-0.386-0.086-0.628-0.464-0.541-0.845
											c0.086-0.381,0.469-0.617,0.856-0.536l20.41,4.53l6.726-13.954c0.17-0.352,0.597-0.504,0.955-0.334
											c0.358,0.167,0.509,0.59,0.339,0.942L121.016,351.854z"/>
									</g>
									<g>
										<path style="fill:#7B63E0;" d="M129.75,374.275l-18.501-5.873c-0.377-0.119-0.584-0.518-0.463-0.889
											c0.121-0.371,0.526-0.576,0.901-0.456l17.312,5.494l6.898-14.183c0.171-0.351,0.598-0.501,0.956-0.332
											c0.357,0.17,0.507,0.592,0.336,0.945L129.75,374.275z"/>
									</g>
								</g>
							</g>
							<g>
								<g>
									<path style="fill:#FFD31A;" d="M159.942,385.877c0,0,28.362-8.838,22.983-30.505c-5.379-21.666,9.78-8.019,15.159-21.842
										c5.379-13.823-9.291-20.098-6.846-31.199c2.445-11.102,14.126-19.307,8.041-29.926
										c-6.085-10.619-23.037,2.253-28.253,15.446c-3.586,3.862-11.736,5.149-18.256,8.367c-6.52,3.218-11.021,11.584-7.14,21.238
										c3.88,9.654-12.746,13.515-16.332,20.595c-3.586,7.079,3.749,13.998,3.016,23.41c-0.734,9.412-3.179,20.407,4.157,27.098
										C143.804,395.248,159.942,385.877,159.942,385.877z"/>
								</g>
								<g>
									<path style="fill:#FFF1B6;" d="M139.245,390.232c4.066-12.88,27.548-84.745,53.496-112.295c0.27-0.286,0.253-0.733-0.036-1
										c-0.29-0.267-0.743-0.247-1.013,0.036c-26.024,27.632-49.501,99.203-53.756,112.653
										C138.354,389.866,138.794,390.061,139.245,390.232z"/>
									<g>
										<path style="fill:#FFF1B6;" d="M173.226,305.219l-5.387-12.752c-0.152-0.36,0.02-0.775,0.385-0.925
											c0.365-0.145,0.784,0.019,0.937,0.381l4.93,11.669l12.844-2.677c0.383-0.069,0.767,0.161,0.849,0.546
											c0.081,0.383-0.167,0.758-0.553,0.838L173.226,305.219z"/>
									</g>
									<g>
										<path style="fill:#FFF1B6;" d="M158.056,336.888l-9.765-20.255c-0.17-0.352-0.018-0.775,0.339-0.942
											c0.358-0.17,0.784-0.017,0.955,0.334l9.272,19.235l28.068-6.229c0.39-0.077,0.768,0.156,0.856,0.536
											c0.087,0.381-0.157,0.76-0.543,0.845L158.056,336.888z"/>
									</g>
									<g>
										<path style="fill:#FFF1B6;" d="M146.124,367.477l-10.057-20.674c-0.171-0.352-0.021-0.775,0.336-0.945
											c0.357-0.168,0.784-0.019,0.956,0.332l9.516,19.564l23.85-7.569c0.376-0.121,0.781,0.084,0.901,0.456
											c0.122,0.371-0.085,0.771-0.462,0.889L146.124,367.477z"/>
									</g>
								</g>
							</g>
						</g>
						<polygon style="fill:#06345E;" points="158.104,417.474 83.216,417.474 75.81,387.41 167.244,387.41 						"/>
					</g>
					<g>
						<g>
							<g>
								<rect x="112.073" y="220.493" style="fill:#17ADA9;" width="7.447" height="12.863"/>
								<rect x="369.712" y="239.702" style="fill:#17ADA9;" width="29.449" height="35.034"/>
								<g>
									<rect x="110.634" y="321.194" style="fill:#17ADA9;" width="11.17" height="28.179"/>
									<rect x="114.315" y="346.835" style="fill:#17ADA9;" width="3.808" height="38.588"/>
									<rect x="115.775" y="383.138" style="fill:#17ADA9;" width="0.888" height="26.148"/>
								</g>
								<path style="fill:#4CCCCC;" d="M297.613,229.971H113.426h-9.139v94.439h27.418c0,0,19.68-28.095,38.636-25.387
									c17.416,2.488,141.327-24.287,127.218,17.569c-1.539,27.151-38.886,99.549-38.886,99.549l116.117,2.708V242.735
									c0-7.049-5.715-12.764-12.764-12.764H297.613z"/>
								
									<ellipse transform="matrix(0.1596 -0.9872 0.9872 0.1596 -46.9696 617.5765)" style="fill:#9AEDEB;" cx="339.241" cy="336.375" rx="22.766" ry="22.766"/>
								<path style="fill:#9AEDEB;" d="M357.178,253.763H132.282c-4.838,0-8.796-3.958-8.796-8.796l0,0
									c0-4.838,3.958-8.796,8.796-8.796h224.896c4.838,0,8.796,3.958,8.796,8.796l0,0
									C365.974,249.805,362.016,253.763,357.178,253.763z"/>
								<rect x="321.985" y="189.285" style="fill:#17ADA9;" width="20.309" height="40.957"/>
								<path style="fill:#4CCCCC;" d="M397.916,316.878L397.916,316.878c-6.004,0-10.916-4.912-10.916-10.916v-97.485
									c0-6.004,4.912-10.916,10.916-10.916l0,0c6.004,0,10.916,4.912,10.916,10.916v97.485
									C408.832,311.966,403.92,316.878,397.916,316.878z"/>
								<path style="fill:#9AEDEB;" d="M398.289,253.763L398.289,253.763c-2.044,0-3.717-1.673-3.717-3.717v-46.826
									c0-2.044,1.673-3.717,3.717-3.717l0,0c2.045,0,3.717,1.673,3.717,3.717v46.826
									C402.006,252.09,400.334,253.763,398.289,253.763z"/>
							</g>
							<path style="fill:#0082AA;" d="M440.683,429.68H60.22v-5.67c0-7.337,5.948-13.286,13.286-13.286h353.892
								c7.337,0,13.286,5.948,13.286,13.286V429.68z"/>
						</g>
					</g>
				</g>
			</g>
			<g>
				<ellipse style="fill:#7B63E0;" cx="422.561" cy="345.805" rx="34.517" ry="1.796"/>
				<g>
					<g>
						<g>
							<path style="fill:#052C49;" d="M438.732,278.516c-0.316,0.931-11.338,27.298-11.338,27.298l-9.09,10.474l-0.601,38.493
								l8.285,1.081l7.187-45.664l12.385-29.365L438.732,278.516z"/>
							<polygon style="fill:#052C49;" points="415.368,277.511 424.557,303.468 430.788,310.6 424.629,328.754 419.226,321.73 
								411.411,281.013 							"/>
						</g>
						<path style="fill:#052C49;" d="M454.157,250.829c-7.532-2.555-16.08,2.573-19.093,11.454
							c-3.013,8.881,0.65,18.152,8.182,20.707s16.08-2.573,19.093-11.453C465.352,262.655,461.689,253.384,454.157,250.829z
							 M444.51,279.266c-5.788-1.964-8.603-9.087-6.287-15.912c2.315-6.824,8.884-10.765,14.672-8.801
							c5.788,1.964,8.602,9.087,6.287,15.912C456.866,277.289,450.297,281.229,444.51,279.266z"/>
						<path style="fill:#052C49;" d="M406.624,249.053c-7.924,0.684-13.694,8.812-12.888,18.156
							c0.806,9.343,7.883,16.363,15.807,15.68c7.924-0.684,13.694-8.812,12.888-18.156
							C421.625,255.389,414.547,248.369,406.624,249.053z M409.205,278.971c-6.089,0.525-11.527-4.869-12.147-12.049
							c-0.62-7.18,3.814-13.426,9.903-13.951c6.089-0.525,11.527,4.869,12.147,12.049
							C419.728,272.199,415.294,278.445,409.205,278.971z"/>
					</g>
					<path style="fill:#006F9B;" d="M428.28,319.909c-0.618,1.823-2.598,2.799-4.42,2.181c-1.823-0.618-2.799-2.598-2.181-4.421
						c0.618-1.823,2.598-2.799,4.421-2.181C427.922,316.107,428.898,318.086,428.28,319.909z"/>
				</g>
				<g>
					<polygon style="fill:#FFC28F;" points="404.612,364.524 395.548,300.445 400.815,286.532 407.999,297.574 416.31,361.284 					
						"/>
					<path style="fill:#FFD31A;" d="M395.565,300.563l9.048,63.961l11.698-3.24l-8.311-63.71l-0.312-0.479
						C403.667,299.091,400.174,301.868,395.565,300.563z"/>
					<path style="fill:#FCB503;" d="M400.034,300.641l7.997,62.936l5.484-1.519l-8.22-63.697
						C403.552,299.31,401.848,300.216,400.034,300.641z"/>
					<path style="fill:#FFD31A;" d="M398.42,292.859c2.067,0.182,4.124-0.074,6.175-0.516l-3.781-5.81L398.42,292.859z"/>
				</g>
				<g>
					<polygon style="fill:#FFC28F;" points="418.892,362.572 442.521,302.324 453.951,292.801 454.774,305.949 430.67,365.505 					
						"/>
					<path style="fill:#4CCCCC;" d="M442.478,302.434l-23.586,60.138l11.778,2.933l24.104-59.557l-0.036-0.57
						C450.257,305.138,445.849,305.838,442.478,302.434z"/>
					<path style="fill:#00A0A8;" d="M446.331,304.701l-23.996,58.728l5.522,1.375l24.177-59.5
						C450.049,305.272,448.119,305.223,446.331,304.701z"/>
					<path style="fill:#00A0A8;" d="M448.754,297.131c1.71,1.175,3.627,1.964,5.63,2.588l-0.434-6.918L448.754,297.131z"/>
				</g>
				<path style="fill:#522EBF;" d="M422.561,347.601c-19.063,0-34.517-0.804-34.517-1.796l11.185,90.329
					c0,1.425,10.446,2.58,23.332,2.58c12.886,0,23.332-1.155,23.332-2.58l11.185-90.329
					C457.078,346.797,441.624,347.601,422.561,347.601z"/>
				<path style="fill:#7B63E0;" d="M438.258,357.334c-12.603-3.484-17.161,12.368-17.998,24.087c0,19.156,0.231,34.851-1.368,57.26
					c1.196,0.021,2.421,0.032,3.669,0.032c6.807,0,12.932-0.322,17.197-0.837C442.842,410.189,448.931,360.285,438.258,357.334z"/>
			</g>
			<g>
				<g>
					<g>
						<g>
							<g>
								<g>
									<path style="fill:#F2B58C;" d="M367.083,183.728c0,0-25.609-7.58-35.705-17.159c-10.096-9.578-10.873-19.675-9.837-36.76
										c-7.249-6.731-19.675-5.695-19.675-5.695s-12.426-1.035-19.674,5.695c1.035,17.086,0.259,27.182-9.837,36.76
										c-10.096,9.578-34.042,16.085-34.042,16.085s49.592,81.039,27.071,129.964c-22.521,48.925-20.191,113.268-20.191,113.268
										h56.674h56.674c0,0,2.33-64.343-20.191-113.268C315.828,263.694,367.083,183.728,367.083,183.728z"/>
									<g>
										<path style="fill:#FF817B;" d="M246.205,176.296c0,0,32.815,40.602,43.14,50.337c3.539,3.337,20.389-19.623,30.227-27.13
											c9.837-7.507,28.707-24.905,28.707-24.905s17.673,0.247,35.325,21.857c-13.979,9.061-22.64,36.908-22.64,41.395
											c-12.426,23.126-14.411,44.526-9.924,66.272c4.487,21.746,7.163,36.243,14.411,55.917
											c7.249,19.675,6.558,71.795,6.558,71.795c-19.146,12.379-44.872,13.807-72.83,13.807
											c-27.958,0-55.227-8.629-59.024-13.462c-0.69-20.71-4.142-68.688,6.903-91.815c11.045-23.126,9.038-38.791,6.622-54.669
											c-2.416-15.878-3.516-36.801-10.419-43.359c-1.381-15.533-8.284-44.872-17.258-50.049
											C233.251,179.517,239.474,175.951,246.205,176.296z"/>
									</g>
									<g>
										<path style="fill:#FF817B;" d="M289.217,226.511c-1.536-1.46-3.548-3.572-5.865-6.118
											c1.821,9.994,4.458,19.787,10.28,28.519c0.815-0.136,1.638-0.286,2.464-0.445c-0.179-0.492-0.368-0.981-0.545-1.475
											C293.128,240.327,291.087,233.469,289.217,226.511z"/>
										<path style="fill:#FF5D52;" d="M366.276,180.988c-10.304-6.278-17.997-6.39-17.997-6.39s-18.87,17.398-28.707,24.905
											c-9.837,7.507-26.687,30.467-30.227,27.13c-0.041-0.038-0.086-0.083-0.127-0.122c1.87,6.958,3.91,13.816,6.334,20.482
											c0.177,0.493,0.366,0.982,0.545,1.475C328.84,242.195,369.501,218.394,366.276,180.988z"/>
										<path style="fill:#FF817B;" d="M335.69,329.153c-15.9-25.529-29.369-52.559-39.593-80.686
											c-0.826,0.158-1.649,0.309-2.464,0.445c-5.821-8.732-8.459-18.525-10.28-28.519
											c-13.456-14.784-37.148-44.098-37.148-44.098c-6.731-0.345-12.953,3.221-20.202,15.992
											c5.997,3.46,11.065,17.705,14.183,31.412C275.757,255.23,308.418,290.381,335.69,329.153z"/>
										<path style="fill:#FF817B;" d="M335.69,329.153c4.949,7.946,10.123,15.751,15.517,23.394
											C346.261,344.606,341.077,336.811,335.69,329.153z"/>
									</g>
									<path style="fill:#FF5D52;" d="M371.978,431.834c0,0,0.359-27.181-2.171-49.695c-4.216-3.931-8.677-8.539-11.094-12.411
										c-5.448-8.728-42.051-75.898-42.051-75.898c-15.266-37.728-65.974-92.209-84.132-110.996
										c-2.117,2.357-6.356,7.142-8.627,11.143c8.975,5.177,17.947,32.828,19.328,48.361c6.903,6.558,8.003,27.481,10.419,43.359
										c2.416,15.878,4.423,31.542-6.622,54.669c-11.045,23.126-7.593,71.105-6.903,91.814
										c3.797,4.833,31.065,13.462,59.024,13.462C327.107,445.641,352.832,444.213,371.978,431.834z"/>
									<path style="fill:#ED4440;" d="M281.158,250.831c14.078,23.26,30.499,43.785,47.021,64.069
										c-6.547-11.951-11.517-21.071-11.517-21.071c-15.266-37.728-65.974-92.209-84.132-110.996
										c-2.117,2.357-6.356,7.142-8.627,11.143c3.175,1.832,6.348,6.483,9.187,12.409
										C251.331,218.456,269.43,230.502,281.158,250.831z"/>
								</g>
							</g>
						</g>
						<path style="fill:#EDA677;" d="M259.793,159.633c-4.342,2.302-6.012,2.131-6.108,1.93s4.397-1.737,3.605-2.913
							c-1.145-1.699-6.126,1.749-6.835,2.791c-0.527,0.773-1.306,1.138-1.673,1.275c-0.067,0.022-0.139,0.046-0.207,0.069h0l0,0
							c-8.517,2.828-28.838,11.13-30.074,11.323c-1.489,0.233-16.668-13.797-16.668-13.797l-3.031,11.314
							c0,0,15.72,12.474,20.904,11.698c4.213-0.631,22.395-10.764,30.901-15.191l0,0c1.449-0.503,8.976-0.82,11.651-4.342
							C264.934,160.269,262.105,158.708,259.793,159.633z"/>
						<path style="fill:#FFDCDC;" d="M272.354,166.57c0,0-9.348,8.541-21.423,11.813c0,0,6.577,3.037,24.709,25.189
							c21.831,26.67,19.431,34.899,41.022,90.257c-41.742-58.351-68.6-95.579-87.562-110.649
							c-27.487-21.845-14.154-43.005,1.2-41.054C245.654,144.078,272.354,166.57,272.354,166.57z"/>
						<path style="fill:#FFC5C5;" d="M272.354,166.57c0,0-9.348,8.541-21.423,11.813c0,0,6.577,3.037,24.709,25.189
							c21.831,26.67,19.431,34.899,41.022,90.257c-41.742-58.351-56.615-90.257-78.35-111.175
							c-25.298-24.347-19.287-36.45-3.934-34.499C249.732,150.107,272.354,166.57,272.354,166.57z"/>
						<path style="fill:#FFDCDC;" d="M331.378,166.57c0,0,14.211,2.217,27.335-2.58c13.125-4.798,15.524,12.207,6.408,25.295
							s-72.688,44.034-72.688,44.034l-2.051-8.326c0,0,33.179-28.564,42.233-39.533S331.378,166.57,331.378,166.57z"/>
						<path style="fill:#FFC5C5;" d="M331.378,166.57c0,0,14.211,2.217,27.335-2.58c13.125-4.798,7.367,10.116-1.749,23.204
							s-64.532,46.126-64.532,46.126l-2.051-8.326c0,0,33.179-28.564,42.233-39.533S331.378,166.57,331.378,166.57z"/>
					</g>
					<g>
						<g>
							<g>
								<path style="fill:#F9B27D;" d="M365.161,369.22c0,0-0.839,8.048-0.664,8.374c1.161,2.163,5.602,10.887,5.651,17.933
									c0.071,10.274-7.019,30.479-7.099,31.612c-0.08,1.133,0.653,3.498,0.74,3.789c0.086,0.291-4.529,6.155-5.978,6.515
									c-1.449,0.36-3.31-1.146-3.31-1.146s4.322-3.088,5.084-6.308c0.762-3.22,1.353-31.773,0.078-39.743
									c-1.275-7.97-4.417-11.985-3.3-14.682c0.323-0.781,0.202-5.515,1.281-6.344C360.29,367.187,365.161,369.22,365.161,369.22z"
									/>
								<path style="fill:#06345E;" d="M363.65,430.453c0,0,1.068,0.931,0.794,3.794s-1.594,6.091-1.594,6.091l-1.995-0.142
									l0.165-2.321c0,0-2.941,2.326-5.546,2.426c-2.605,0.1-8.189,0.545-8.331,0.037c-0.142-0.508,7.822-4.411,7.822-4.411
									s1.044,1.815,2.737,1.045C359.394,436.202,363.65,430.453,363.65,430.453z"/>
								<path style="fill:#F2B58C;" d="M348.344,369.819c0,0-0.067,9.37,0.015,10.229c0.081,0.86,20.442,44.935,21.205,46.223
									c0.763,1.288-0.345,7.87-1.151,9.965c-0.511,1.328,3.606-0.42,3.606-0.42l1.855-8.765c0,0-1.909-1.179-2.842-5.421
									c-0.933-4.241,1.236-21.384-5.632-30.25c-3.547-4.579-7.473-10.641-7.875-13.325c-0.058-0.387,1.111-6.925,1.211-7.157
									C359.53,369.057,348.344,369.819,348.344,369.819z"/>
								<path style="fill:#06345E;" d="M373.623,426.682c0,0,1.362,0.39,2.328,3.099c0.966,2.709,1.14,6.192,1.14,6.192
									l-1.866,0.718l-0.835-2.172c0,0-1.724,4.3-4.04,5.496s-6.381,1.289-6.725,0.889c-0.344-0.4,4.911-5.218,4.911-5.218
									s1.26,0.837,2.467-0.577C372.208,433.693,373.623,426.682,373.623,426.682z"/>
								<polygon style="fill:#06345E;" points="367.016,372.538 370.915,344.995 346.555,343.267 346.847,372.538 								"/>
								<path style="fill:#052C49;" d="M362.447,372.538h4.569l5.427-38.331l-25.887-1.255l0.029,13.225
									C361.271,344.821,363.413,359.447,362.447,372.538z"/>
							</g>
							<path style="fill:#522EBF;" d="M373.206,332.774c-0.026-11.674-6.588-25.52-6.588-25.52l11.66-29.257l-8.228-5.088
								l-11.33-0.804c0,0-12.882,11.043-12.122,14.371c2.199,7.131,1.241,27.323-0.157,36.334c-0.363,2.339-0.648,6.66-0.872,11.77
								l27.62,0.497C373.199,334.262,373.207,333.481,373.206,332.774z"/>
							<path style="fill:#381DA8;" d="M373.206,332.774c-0.026-11.674-6.588-25.52-6.588-25.52l11.66-29.257l-16.41,28.657
								c0,0,8.546,13.965,8.573,25.639c0.002,0.831-0.013,1.754-0.038,2.734l2.785,0.05
								C373.199,334.262,373.207,333.481,373.206,332.774z"/>
							<g>
								<path style="fill:#F2B58C;" d="M318.246,283.422c0,0-4.737-2.918-5.107-3.375c-0.37-0.457-1.143-0.508-2.849-0.696
									c-1.847-0.203-2.112,1.378-1.073,2.394c0.289,0.283,0.482,0.346,0.482,0.346s-0.923,1.341,0.035,2.164
									c-0.257,1.075,0.206,1.81,0.751,1.896c-0.253,0.635,0.048,1.086,0.54,1.548c0.492,0.462,1.798,0.368,2.096,0.175
									c0.307-0.198,0.454-0.333,0.454-0.333s3.138,1.063,5.099-0.119S318.246,283.422,318.246,283.422z"/>
								<path style="fill:#F2B58C;" d="M365.956,287.455c-5.063,3.958-15.28,9.057-15.28,9.057l-33.105-13.51l-1.744,4.962
									c0,0,6.535,4.056,17.508,10.907c8.989,5.612,15.655,9.501,23.93,5.338c1.457-0.733,7.068-4.229,12.495-7.739v-9.014H365.956
									z"/>
								<path style="fill:#5439C9;" d="M374.236,275.771c-2.266,0.836-4.203,6.738-7.691,9.895
									c-1.582,1.431-4.292,3.108-7.131,4.676c1.838,3.854,3.378,7.564,4.505,11.508c6.78-4.858,16.668-12.389,17.287-13.272
									C384.591,283.744,376.501,274.935,374.236,275.771z"/>
							</g>
							<g>
								<path style="fill:#F2B58C;" d="M369.261,263.601l1.157,9.568l-11.511,3.233c0,0,1.158-3.205,1.795-4.156
									c0.637-0.951,2.471-5.234,2.471-5.234L369.261,263.601z"/>
								<path style="fill:#E5A070;" d="M362.987,271.892c-0.512,0.212-1.531,0.253-2.141,0.119c0.731-1.271,2.327-4.999,2.327-4.999
									l5.156-2.889C368.219,267.722,366.246,270.541,362.987,271.892z"/>
								<path style="fill:#F2B58C;" d="M369.814,259.488c0,0,1.315,6.397-6.494,11.038c-2.687,1.025-4.653-2.196-5.088-5.129
									c-0.434-2.934-1.877-8.297-0.074-10.439S369.04,255.169,369.814,259.488z"/>
								<path style="fill:#052C49;" d="M368.959,251.136c0,0,3.568-6.704,12.326-4.865c8.758,1.838,6.271,11.785,2.487,18.921
									s0.324,12.647,5.082,9.73c-6.92,5.299-12.355,4.326-14.557-1.512c-2.202-5.839-1.12-10.628,1.042-15.477
									c2.162-4.85-1.406-5.823-3.893-4.309C368.959,255.136,368.959,251.136,368.959,251.136z"/>
								<path style="fill:#052C49;" d="M363.317,256.774c0,0-3.126-0.079-4.326,1.449c-1.2,1.528-0.359,3.059,0.133,3.473
									c-1.821,0.251-4.778-0.196-5.367-3.939c-0.589-3.743,4.085-6.424,5.476-5.97c1.01-3.202,10.154-3.678,12.961,0.891
									c2.808,4.569-2.433,15.075-2.433,15.075s-1.07-2.805-1.066-3.374c0.005-0.569,1.084-1.24,0.876-2.82
									c-0.208-1.581-1.407-1.737-1.973-1.279c-0.566,0.458-0.578,2.13-0.578,2.13S362.897,259.021,363.317,256.774z"/>
							</g>
						</g>
						<g>
							<path style="fill:#FFD31A;" d="M374.296,275.535c0,0-0.26-5.022-4.378-6.495c-1.858,4.918-6.905,6.139-8.127,6.276
								c-1.222,0.137-0.734-3.73-0.734-3.73s-0.967-0.811-3.04,1.744c-2.073,2.554-2.849,6.861,1.351,8.65
								C363.568,283.769,373.234,280.799,374.296,275.535z"/>
							<path style="fill:#FFE236;" d="M348.453,290.842c0,0,4.799-18.545,13.013-15.605c-0.78,0.694-7.219,8.271-6.831,16.183
								C351.573,290.76,348.453,290.842,348.453,290.842z"/>
						</g>
					</g>
					<g>
						<g>
							<g>
								<g>
									<g>
										<g>
											<path style="fill:#F2B58C;" d="M200.988,195.294c0,0,2.623,31.475,2.841,46.338c0.219,14.863-1.421,55.082-1.421,55.082
												h-5.137c0,0-6.339-26.448-5.902-34.754c0.437-8.306,2.186-15.956,2.186-15.956l-5.792-21.421
												c0,0-4.809,22.732-7.377,25.136c-2.568,2.404-6.065,9.836-6.94,13.77c-0.874,3.934-11.067,30.379-11.067,30.379
												l-5.268-0.022c0,0,3.932-24.404,5.462-32.71c1.53-8.306,6.502-12.51,7.376-15.133c0.874-2.623,4.424-24.141,5.08-28.294
												c0.656-4.153-2.993-15.985,4.657-23.854C187.337,185.987,200.988,195.294,200.988,195.294z"/>
											<path style="fill:#06345E;" d="M157.111,285.208c0-6.621,12.981-48.757,13.049-49.756
												c0.487-7.038,1.315-15.308,1.701-17.755c0.656-4.153-3.669-20.173,3.981-28.042c7.65-7.869,25.144,5.638,25.144,5.638
												s2.995,29.579,3.727,45.542c0.041,0.886-0.891,44.833-0.865,45.662c-2.708,2.074-7.539,2.213-11.438,1.049l-3.027-43.686
												l-1.621-19.278c0,0-2.532,13.128-4.251,20.034c-0.192,0.772-16.626,42.256-16.843,43.003
												C163.513,288.277,160.529,288.315,157.111,285.208z"/>
											<path style="fill:#052C49;" d="M195.755,217.246c3.685,4.607,6.261,9.879,8.478,15.388
												c-1.104-16.184-3.246-37.341-3.246-37.341s-17.494-13.507-25.144-5.638c-2.894,2.977-4.073,7.12-4.457,11.347
												c1.608,0.095,3.083,0.323,4.219,0.891C181.362,210.529,190.958,210.529,195.755,217.246z"/>
										</g>
										<g>
											<g>
												<path style="fill:#052C49;" d="M202.959,293.899c0,0-2.054-0.496-3.319,1.159c-0.738,0.632-2.979-0.966-2.979-0.966
													s-3.658,4.469-1.832,9.381c6.883,1.119,23.74,0.566,24.583,0c0.843-0.566-0.281-5.202-5.97-5.132
													C207.753,298.412,202.959,293.899,202.959,293.899z"/>
												<path style="fill:#052C49;" d="M218.78,300.945c0.062-0.042,0.11-0.111,0.15-0.194c0.831,1.197,0.895,2.445,0.482,2.722
													c-0.843,0.566-17.7,1.119-24.583,0c-0.319-0.857-0.463-1.699-0.496-2.509
													C201.297,302.057,217.943,301.508,218.78,300.945z"/>
											</g>
										</g>
										<g>
											<g>
												<path style="fill:#052C49;" d="M156.642,294.87c0,0,0.538-3.261,3.371-3.793c2.833-0.531,2.739-0.105,4.214,2.212
													c1.475,2.318,6.954,6.286,7.516,9.377c0.562,3.09-9.096,2.429-12.467,1.215c-3.371-1.215-3.161-1.215-3.582-2.479
													C155.272,300.138,156.642,294.87,156.642,294.87z"/>
												<path style="fill:#052C49;" d="M159.276,301.422c2.83,1.02,10.088,1.648,12.013-0.004
													c0.221,0.427,0.381,0.845,0.454,1.248c0.562,3.09-9.096,2.429-12.467,1.215c-3.371-1.215-3.161-1.215-3.582-2.479
													c-0.141-0.423-0.08-1.296,0.062-2.268C156.102,300.209,156.084,300.272,159.276,301.422z"/>
											</g>
										</g>
									</g>
									<path style="fill:#A34ADD;" d="M203.849,144.986c0,0-8.057-1.979-14.271,2.871c-9.836,7.677-12.03,26.557-13.696,34.352
										c-1.193,5.579-4.115,15.352-4.115,15.352s3.088-0.337,13.114,4.492c12.277,5.914,17.004,2.484,17.004,2.484
										s9.853-37.102,8.105-48.704C209.242,150.875,203.849,144.986,203.849,144.986z"/>
									<g>
										<path style="fill:#052C49;" d="M217.938,137.444c0,0,8.246,0.757,8.044-3.971c-0.269-6.299-7.037-7.73-7.037-7.73
											c1.749-2.062-3.655-4.251-6.165-1.946c1.087-2.964-7.509-3.628-9.68,0.931c-4.802,0.719-4.78,9.944-2.667,15.513
											c3.651,9.622,4.092,3.116,4.092,3.116L217.938,137.444z"/>
										<path style="fill:#F2B58C;" d="M212.438,130.619c0,0,4.263,1.583,5.914,3.323c1.652,1.74-0.477,4.679-0.15,5.908
											c0.327,1.228,1.339,2.217,1.273,2.618c-0.066,0.4-1.514,0.632-1.752,0.652c-0.238,0.019-2.139,4.073-3.674,5.308
											c-1.535,1.236-2.898-0.477-3.349-0.825c-0.452-0.349-3.475,1.457-4.038,5.684c-0.153,1.152-5.007-0.801-6.376-2.231
											c-2.456-2.564-0.68-4.607-0.332-5.059c0.349-0.452,3.247-3.548,3.758-4.198c0.956-1.214,1.819-2.527,1.92-2.667
											c0.102-0.14-2.019-2.721-0.961-4.153c1.058-1.431,2.46,0.757,2.713,1.719c0.231,0.978-0.057,1.42-0.057,1.42l0.985,0.436
											c0,0,0.414-2.516,1.086-3.267C210.07,134.537,213.573,132.764,212.438,130.619z"/>
									</g>
								</g>
							</g>
							<g>
								<g>
									<g>
										<g>
											<g>
												<path style="fill:#00A9C5;" d="M188.812,308.246h4.989l-39.006,134.985c-0.304,1.048-1.261,1.731-2.301,1.731
													c-0.22,0-0.444-0.032-0.667-0.096c-1.27-0.366-2.002-1.695-1.636-2.966L188.812,308.246z"/>
											</g>
											<g>
												<path style="fill:#00A9C5;" d="M110.116,441.9l38.621-133.654h4.989l-39.006,134.985
													c-0.304,1.048-1.261,1.731-2.301,1.731c-0.22,0-0.444-0.032-0.667-0.096C110.482,444.501,109.749,443.172,110.116,441.9
													z"/>
											</g>
										</g>
										<g>
											<path style="fill:#00A9C5;" d="M116.965,429.2h40.076c1.311,0,2.373-1.062,2.373-2.373c0-1.311-1.062-2.373-2.373-2.373
												h-40.076c-1.311,0-2.373,1.062-2.373,2.373C114.592,428.138,115.654,429.2,116.965,429.2z"/>
										</g>
										<g>
											<path style="fill:#00A9C5;" d="M125.362,400.645h39.864c1.308,0,2.367-1.06,2.367-2.368c0-1.307-1.06-2.367-2.367-2.367
												h-39.864c-1.307,0-2.367,1.06-2.367,2.367C122.995,399.585,124.055,400.645,125.362,400.645z"/>
										</g>
										<g>
											<path style="fill:#00A9C5;" d="M133.709,372.091h39.701c1.304,0,2.363-1.059,2.363-2.363
												c0-1.304-1.059-2.363-2.363-2.363h-39.701c-1.304,0-2.363,1.059-2.363,2.363
												C131.346,371.032,132.405,372.091,133.709,372.091z"/>
										</g>
										<g>
											<path style="fill:#00A9C5;" d="M142.106,343.534h39.488c1.301,0,2.356-1.055,2.356-2.356
												c0-1.301-1.055-2.356-2.356-2.356h-39.488c-1.301,0-2.356,1.055-2.356,2.356
												C139.751,342.479,140.805,343.534,142.106,343.534z"/>
										</g>
										<g>
											<path style="fill:#00A9C5;" d="M150.081,314.987h39.542c1.302,0,2.358-1.056,2.358-2.358
												c0-1.302-1.056-2.358-2.358-2.358h-39.542c-1.302,0-2.358,1.056-2.358,2.358
												C147.723,313.931,148.779,314.987,150.081,314.987z"/>
										</g>
									</g>
									<g>
										<g>
											<g>
												<path style="fill:#00A0A8;" d="M181.988,308.246L220.609,441.9c0.366,1.271-0.366,2.6-1.637,2.966
													c-0.222,0.064-0.447,0.096-0.667,0.096c-1.04,0-1.997-0.683-2.301-1.731l-39.005-134.985H181.988z"/>
											</g>
											<g>
												<path style="fill:#00A0A8;" d="M222.063,308.246L260.684,441.9c0.366,1.271-0.366,2.6-1.636,2.966
													c-0.222,0.064-0.447,0.096-0.667,0.096c-1.04,0-1.997-0.683-2.301-1.731l-39.006-134.985H222.063z"/>
											</g>
										</g>
										<g>
											<path style="fill:#00A0A8;" d="M253.835,429.2h-40.075c-1.311,0-2.374-1.062-2.374-2.373
												c0-1.311,1.062-2.373,2.374-2.373h40.075c1.311,0,2.373,1.062,2.373,2.373C256.208,428.138,255.146,429.2,253.835,429.2z
												"/>
										</g>
										<g>
											<path style="fill:#00A0A8;" d="M245.437,400.645h-39.864c-1.308,0-2.367-1.06-2.367-2.368
												c0-1.307,1.06-2.367,2.367-2.367h39.864c1.308,0,2.368,1.06,2.368,2.367
												C247.805,399.585,246.745,400.645,245.437,400.645z"/>
										</g>
										<g>
											<path style="fill:#00A0A8;" d="M237.091,372.091h-39.701c-1.304,0-2.363-1.059-2.363-2.363
												c0-1.304,1.059-2.363,2.363-2.363h39.701c1.304,0,2.363,1.059,2.363,2.363
												C239.453,371.032,238.395,372.091,237.091,372.091z"/>
										</g>
										<g>
											<path style="fill:#00A0A8;" d="M228.693,343.534h-39.488c-1.301,0-2.356-1.055-2.356-2.356
												c0-1.301,1.055-2.356,2.356-2.356h39.488c1.301,0,2.356,1.055,2.356,2.356
												C231.049,342.479,229.994,343.534,228.693,343.534z"/>
										</g>
										<g>
											<path style="fill:#00A9C5;" d="M220.719,314.987h-39.542c-1.302,0-2.358-1.056-2.358-2.358
												c0-1.302,1.056-2.358,2.358-2.358h39.542c1.302,0,2.358,1.056,2.358,2.358
												C223.077,313.931,222.021,314.987,220.719,314.987z"/>
										</g>
									</g>
									<path style="fill:#00A9C5;" d="M143.263,315.443h86.433c3.502,0,6.34-2.839,6.34-6.34l0,0c0-3.502-2.839-6.341-6.341-6.341
										h-86.433c-3.502,0-6.34,2.839-6.34,6.341l0,0C136.922,312.604,139.761,315.443,143.263,315.443z"/>
								</g>
							</g>
						</g>
					</g>
				</g>
				<g>
					<path style="fill:#F2B58C;" d="M250.462,197.336c-4.732-1.327-5.823-2.602-5.754-2.814c0.069-0.212,4.382,1.774,4.62,0.377
						c0.343-2.02-5.642-2.958-6.874-2.693c-0.915,0.197-1.73-0.076-2.091-0.231c-0.063-0.03-0.132-0.062-0.197-0.093l0,0l0,0
						c-8.118-3.826-28.559-11.827-29.587-12.539c-1.239-0.858-11.989-16.221-11.989-16.221l-7.846,5.283
						c0,0,10.063,15.43,14.352,18.442c3.486,2.448,23.641,7.649,32.854,10.309v0c1.396,0.635,7.066,5.596,11.432,4.891
						S252.774,198.26,250.462,197.336z"/>
					<path style="fill:#B369ED;" d="M191.809,178.291c0,0-7.998-18.795-5.066-23.841c2.932-5.046,7.214-1.539,9.034,1.278
						c1.82,2.817,10.027,13.921,10.027,13.921L191.809,178.291z"/>
				</g>
			</g>
		</g>
		<g>
			<g>
				<path style="fill:#B0C9D6;" d="M91.459,245.235c-0.713-1.124-1.417-2.277-2.093-3.428l0.862-0.507
					c0.67,1.141,1.368,2.284,2.075,3.399L91.459,245.235z M87.873,239.189c-0.643-1.162-1.277-2.356-1.884-3.547l0.891-0.454
					c0.603,1.182,1.231,2.365,1.869,3.517L87.873,239.189z M84.654,232.941c-0.574-1.201-1.137-2.43-1.672-3.652l0.916-0.401
					c0.531,1.212,1.089,2.431,1.659,3.621L84.654,232.941z M419.309,226.912l-0.403-0.282l-0.502,0.109l0.127-0.456l0.434,0.327
					l0.415-0.087l-0.408,0.092l0.358,0.271L419.309,226.912z M81.808,226.515c-0.503-1.232-0.994-2.492-1.456-3.743l0.938-0.347
					c0.459,1.241,0.945,2.489,1.444,3.712L81.808,226.515z M421.099,224.398l-0.834-0.551c0.691-1.049,1.387-2.189,2.067-3.389
					l0.869,0.493C422.511,222.17,421.804,223.33,421.099,224.398z M79.34,219.933c-0.431-1.259-0.846-2.545-1.235-3.822l0.956-0.292
					c0.386,1.266,0.799,2.542,1.226,3.791L79.34,219.933z M424.636,218.288l-0.891-0.454c0.596-1.168,1.171-2.375,1.709-3.588
					l0.914,0.405C425.822,215.881,425.24,217.105,424.636,218.288z M77.263,213.218c-0.358-1.292-0.697-2.6-1.008-3.888l0.972-0.234
					c0.308,1.278,0.645,2.575,1,3.855L77.263,213.218z M427.54,211.867l-0.93-0.37c0.488-1.224,0.951-2.479,1.376-3.73l0.947,0.322
					C428.503,209.357,428.033,210.628,427.54,211.867z M75.584,206.391c-0.281-1.313-0.542-2.639-0.774-3.942l0.984-0.176
					c0.23,1.292,0.489,2.607,0.768,3.908L75.584,206.391z M429.851,205.214l-0.959-0.286c0.379-1.267,0.728-2.557,1.042-3.836
					l0.971,0.237C430.588,202.624,430.233,203.931,429.851,205.214z M74.319,199.475c-0.201-1.324-0.38-2.664-0.532-3.982
					l0.993-0.115c0.151,1.307,0.329,2.635,0.527,3.948L74.319,199.475z M431.568,198.383l-0.98-0.201
					c0.267-1.298,0.504-2.614,0.705-3.913l0.988,0.153C432.078,195.737,431.838,197.069,431.568,198.383z M73.48,192.493
					c-0.118-1.338-0.212-2.687-0.28-4.009l0.999-0.051c0.067,1.309,0.16,2.645,0.277,3.972L73.48,192.493z M432.689,191.432
					l-0.994-0.117c0.155-1.314,0.278-2.646,0.368-3.958l0.998,0.068C432.971,188.753,432.846,190.101,432.689,191.432z
					 M73.087,185.471c-0.019-0.823-0.029-1.645-0.029-2.467c0-0.519,0.004-1.038,0.012-1.556l1,0.016
					c-0.008,0.513-0.012,1.026-0.012,1.541c0,0.813,0.01,1.628,0.029,2.443L73.087,185.471z M433.214,184.412l-1-0.032
					c0.029-0.9,0.045-1.812,0.045-2.735c0-0.411-0.003-0.825-0.009-1.241l1-0.014c0.006,0.42,0.009,0.838,0.009,1.254
					C433.259,182.579,433.243,183.502,433.214,184.412z M74.158,178.475l-0.999-0.044c0.059-1.338,0.146-2.689,0.258-4.016
					l0.996,0.084C74.303,175.813,74.217,177.15,74.158,178.475z M432.155,177.423c-0.067-1.324-0.165-2.659-0.29-3.967l0.996-0.095
					c0.126,1.323,0.225,2.672,0.292,4.011L432.155,177.423z M74.71,171.525l-0.993-0.114c0.153-1.331,0.337-2.673,0.545-3.987
					l0.987,0.156C75.044,168.88,74.862,170.207,74.71,171.525z M431.531,170.492c-0.17-1.31-0.371-2.633-0.597-3.934l0.984-0.171
					c0.229,1.314,0.433,2.652,0.604,3.976L431.531,170.492z M75.763,164.636l-0.982-0.189c0.253-1.321,0.537-2.645,0.844-3.935
					l0.973,0.231C76.294,162.02,76.014,163.329,75.763,164.636z M430.376,163.628l-0.077-0.364
					c-0.244-1.158-0.544-2.323-0.893-3.465l0.957-0.292c0.357,1.17,0.665,2.364,0.915,3.549l0.077,0.369L430.376,163.628z
					 M77.336,157.851l-0.965-0.264c0.355-1.299,0.743-2.597,1.152-3.856l0.951,0.309C78.071,155.285,77.688,156.568,77.336,157.851z
					 M428.442,157.003c-0.466-1.208-0.997-2.421-1.58-3.605l0.896-0.441c0.597,1.211,1.141,2.452,1.617,3.687L428.442,157.003z
					 M149.517,154.124c-1.39-0.041-2.753-0.189-4.05-0.441l0.19-0.981c1.244,0.241,2.552,0.384,3.889,0.422L149.517,154.124z
					 M152.573,154.032l-0.092-0.996c1.31-0.121,2.602-0.355,3.839-0.698l0.267,0.964
					C155.292,153.66,153.942,153.906,152.573,154.032z M142.505,152.897c-1.306-0.447-2.558-1.02-3.72-1.702l0.507-0.862
					c1.104,0.648,2.294,1.193,3.537,1.618L142.505,152.897z M159.477,152.279l-0.398-0.917c1.185-0.516,2.334-1.148,3.414-1.881
					l0.561,0.828C161.922,151.076,160.719,151.739,159.477,152.279z M79.445,151.219l-0.939-0.342
					c0.46-1.265,0.954-2.525,1.467-3.747l0.922,0.388C80.387,148.725,79.899,149.97,79.445,151.219z M425.47,150.782
					c-0.645-1.122-1.353-2.249-2.104-3.35l0.826-0.563c0.766,1.122,1.487,2.27,2.145,3.415L425.47,150.782z M136.263,149.436
					c-1.048-0.86-2.017-1.84-2.879-2.911l0.779-0.627c0.819,1.018,1.739,1.948,2.734,2.764L136.263,149.436z M165.467,148.425
					l-0.666-0.746c0.956-0.853,1.862-1.808,2.693-2.839l0.778,0.628C167.407,146.542,166.463,147.537,165.467,148.425z
					 M421.625,145.025c-0.782-1.024-1.626-2.058-2.507-3.071l0.754-0.656c0.895,1.029,1.753,2.08,2.548,3.121L421.625,145.025z
					 M82.099,144.793l-0.907-0.421c0.563-1.213,1.164-2.425,1.785-3.605l0.885,0.466C83.248,142.398,82.655,143.595,82.099,144.793z
					 M131.642,144.002c-0.679-1.151-1.265-2.393-1.745-3.691l0.938-0.347c0.458,1.243,1.02,2.43,1.667,3.53L131.642,144.002z
					 M170.051,142.982l-0.845-0.535c0.691-1.091,1.318-2.254,1.865-3.459l0.91,0.413
					C171.417,140.648,170.767,141.853,170.051,142.982z M417.115,139.749c-0.886-0.935-1.83-1.88-2.808-2.811l0.69-0.725
					c0.99,0.943,1.946,1.901,2.845,2.848L417.115,139.749z M85.299,138.628l-0.866-0.5c0.67-1.161,1.377-2.314,2.099-3.428
					l0.839,0.544C86.658,136.343,85.961,137.482,85.299,138.628z M129.02,137.38c-0.305-1.298-0.515-2.651-0.626-4.023l0.997-0.08
					c0.107,1.321,0.309,2.624,0.603,3.874L129.02,137.38z M173.105,136.566l-0.946-0.322c0.419-1.231,0.768-2.51,1.035-3.8
					l0.979,0.203C173.897,133.978,173.538,135.296,173.105,136.566z M412.112,134.918c-0.962-0.855-1.98-1.725-3.028-2.585
					l0.635-0.773c1.058,0.869,2.087,1.747,3.058,2.611L412.112,134.918z M89.037,132.782l-0.817-0.576
					c0.77-1.091,1.58-2.177,2.407-3.226l0.785,0.619C90.596,130.635,89.797,131.706,89.037,132.782z M406.749,130.468
					c-1.045-0.813-2.108-1.611-3.186-2.396l0.59-0.809c1.086,0.792,2.157,1.597,3.21,2.416L406.749,130.468z M129.308,130.332
					l-1-0.023c0.031-1.335,0.153-2.696,0.361-4.045l0.988,0.152C129.456,127.722,129.338,129.04,129.308,130.332z M174.653,129.64
					l-0.993-0.112c0.136-1.205,0.206-2.425,0.206-3.628l-0.001-0.304l1-0.01l0.001,0.314
					C174.865,127.14,174.794,128.398,174.653,129.64z M93.302,127.297l-0.76-0.649c0.87-1.019,1.777-2.024,2.695-2.989l0.725,0.689
					C95.056,125.3,94.161,126.292,93.302,127.297z M401.127,126.335c-1.092-0.762-2.194-1.512-3.307-2.25l0.553-0.833
					c1.118,0.742,2.229,1.497,3.326,2.263L401.127,126.335z M130.242,123.521l-0.971-0.242c0.324-1.296,0.731-2.598,1.212-3.87
					l0.936,0.354C130.952,120.998,130.556,122.262,130.242,123.521z M173.697,122.648c-0.137-1.313-0.36-2.616-0.664-3.873
					l0.972-0.235c0.314,1.3,0.545,2.647,0.687,4.004L173.697,122.648z M395.31,122.445c-1.121-0.72-2.249-1.429-3.379-2.128
					l0.525-0.851c1.136,0.702,2.268,1.414,3.395,2.137L395.31,122.445z M98.056,122.229l-0.697-0.717
					c0.955-0.928,1.95-1.846,2.958-2.728l0.659,0.752C99.98,120.407,98.998,121.313,98.056,122.229z M330.31,120.898l-1.186-0.004
					l0.008-1l1.179,0.004c0.928,0,1.863-0.008,2.808-0.024l0.017,1C332.185,120.89,331.244,120.898,330.31,120.898z
					 M326.116,120.844c-1.352-0.035-2.688-0.087-4.006-0.154l0.051-0.999c1.311,0.067,2.638,0.119,3.98,0.153L326.116,120.844z
					 M336.143,120.796l-0.035-0.999c1.311-0.045,2.639-0.106,3.983-0.183l0.057,0.998
					C338.795,120.689,337.46,120.751,336.143,120.796z M319.107,120.507c-1.348-0.095-2.679-0.206-3.994-0.334l0.096-0.995
					c1.308,0.126,2.631,0.237,3.969,0.332L319.107,120.507z M343.15,120.415l-0.074-0.997c1.309-0.097,2.633-0.208,3.977-0.335
					l0.094,0.995C345.797,120.206,344.465,120.318,343.15,120.415z M312.123,119.855c-1.341-0.156-2.665-0.327-3.975-0.514
					l0.141-0.99c1.303,0.186,2.619,0.356,3.95,0.511L312.123,119.855z M350.138,119.771l-0.109-0.994
					c1.191-0.131,2.397-0.274,3.615-0.43l0.346-0.045l0.131,0.991l-0.351,0.045C352.546,119.496,351.335,119.639,350.138,119.771z
					 M305.175,118.89c-1.33-0.215-2.646-0.444-3.949-0.687l0.184-0.983c1.296,0.242,2.604,0.469,3.926,0.683L305.175,118.89z
					 M357.099,118.873l-0.15-0.988c1.343-0.205,2.652-0.425,3.928-0.661l0.182,0.983
					C359.772,118.444,358.453,118.667,357.099,118.873z M389.378,118.757c-1.146-0.692-2.292-1.375-3.435-2.048l0.508-0.861
					c1.146,0.675,2.295,1.359,3.444,2.054L389.378,118.757z M298.276,117.626c-1.316-0.269-2.622-0.551-3.917-0.845l0.221-0.976
					c1.289,0.293,2.587,0.574,3.895,0.841L298.276,117.626z M364.012,117.623l-0.207-0.979c1.32-0.279,2.625-0.581,3.877-0.895
					l0.244,0.97C366.661,117.037,365.345,117.341,364.012,117.623z M103.254,117.618l-0.629-0.777
					c1.035-0.838,2.108-1.662,3.19-2.451l0.589,0.809C105.336,115.977,104.276,116.791,103.254,117.618z M132.581,117.044
					l-0.902-0.432c0.576-1.205,1.229-2.401,1.943-3.554l0.851,0.525C133.777,114.707,133.141,115.871,132.581,117.044z
					 M291.434,116.092c-1.302-0.317-2.596-0.645-3.883-0.983l0.254-0.967c1.281,0.336,2.569,0.663,3.865,0.979L291.434,116.092z
					 M172.191,115.953c-0.444-1.243-0.98-2.447-1.593-3.579l0.879-0.477c0.638,1.176,1.195,2.428,1.656,3.719L172.191,115.953z
					 M370.837,115.94l-0.273-0.962c1.299-0.37,2.576-0.766,3.796-1.176l0.318,0.948C373.444,115.165,372.151,115.565,370.837,115.94
					z M383.354,115.196c-1.162-0.675-2.319-1.342-3.467-2.001l0.311-0.543c-0.871,0.373-1.768,0.735-2.68,1.082l-0.355-0.935
					c1.26-0.479,2.494-0.989,3.666-1.516l0.41,0.912c-0.202,0.091-0.406,0.181-0.612,0.271c1.069,0.615,2.146,1.236,3.228,1.864
					L383.354,115.196z M284.651,114.328c-1.285-0.354-2.567-0.718-3.846-1.091l0.279-0.96c1.274,0.371,2.551,0.733,3.832,1.087
					L284.651,114.328z M108.844,113.487l-0.559-0.829c1.099-0.741,2.24-1.469,3.39-2.165l0.518,0.855
					C111.057,112.037,109.93,112.756,108.844,113.487z M277.93,112.385c-1.277-0.384-2.552-0.775-3.828-1.171l0.297-0.955
					c1.272,0.396,2.545,0.786,3.818,1.168L277.93,112.385z M377.282,111.701l-3.475-1.992l0.498-0.867l3.475,1.992L377.282,111.701z
					 M136.126,111.13l-0.807-0.591c0.79-1.078,1.648-2.134,2.554-3.14l0.743,0.669C137.733,109.05,136.895,110.08,136.126,111.13z
					 M383.966,110.892l-0.453-0.891c1.196-0.61,2.36-1.257,3.459-1.925l0.52,0.854C386.371,109.612,385.185,110.272,383.966,110.892
					z M271.233,110.313c-1.27-0.402-2.542-0.809-3.818-1.219l0.307-0.952c1.274,0.41,2.545,0.816,3.814,1.218L271.233,110.313z
					 M169.045,109.883c-0.76-1.066-1.612-2.067-2.533-2.977l0.703-0.711c0.961,0.95,1.851,1.996,2.644,3.108L169.045,109.883z
					 M114.771,109.851l-0.487-0.873c1.153-0.644,2.349-1.276,3.555-1.878l0.447,0.895
					C117.093,108.59,115.911,109.215,114.771,109.851z M371.205,108.205c-1.176-0.683-2.329-1.36-3.458-2.032l0.512-0.859
					c1.125,0.67,2.276,1.346,3.448,2.027L371.205,108.205z M264.56,108.173l-3.803-1.229l0.307-0.951l3.805,1.229L264.56,108.173z
					 M390.029,107.278l-0.572-0.82c1.099-0.766,2.15-1.577,3.128-2.409l0.648,0.762
					C392.231,105.664,391.153,106.494,390.029,107.278z M120.974,106.706l-0.417-0.909c1.208-0.554,2.449-1.092,3.688-1.598
					l0.378,0.926C123.397,105.626,122.169,106.157,120.974,106.706z M257.904,106.025c-1.26-0.405-2.528-0.809-3.806-1.213
					l0.301-0.953c1.279,0.404,2.55,0.809,3.812,1.214L257.904,106.025z M140.676,105.941l-0.693-0.721
					c0.961-0.923,1.984-1.819,3.043-2.662l0.623,0.782C142.614,104.165,141.614,105.04,140.676,105.941z M164.298,104.989
					c-1.029-0.778-2.141-1.479-3.307-2.08l0.459-0.889c1.216,0.628,2.377,1.358,3.452,2.171L164.298,104.989z M365.17,104.616
					c-1.17-0.717-2.306-1.43-3.4-2.139l0.543-0.839c1.089,0.705,2.217,1.413,3.381,2.126L365.17,104.616z M127.403,104.04
					l-0.349-0.938c1.279-0.475,2.559-0.916,3.804-1.312l0.303,0.953C129.931,103.134,128.666,103.57,127.403,104.04z
					 M251.238,103.918c-1.263-0.392-2.535-0.781-3.818-1.168l0.288-0.957c1.287,0.387,2.562,0.778,3.827,1.17L251.238,103.918z
					 M395.464,102.753l-0.707-0.706c0.939-0.942,1.817-1.932,2.61-2.943l0.787,0.617
					C397.337,100.763,396.432,101.783,395.464,102.753z M134.019,101.9l-0.264-0.965c1.324-0.361,2.643-0.678,3.919-0.941
					l0.202,0.979C136.62,101.233,135.322,101.545,134.019,101.9z M244.549,101.897c-1.266-0.371-2.544-0.739-3.836-1.102
					l0.271-0.963c1.296,0.364,2.578,0.732,3.847,1.104L244.549,101.897z M158.306,101.723c-1.195-0.445-2.462-0.813-3.766-1.093
					l0.21-0.978c1.351,0.291,2.665,0.671,3.905,1.133L158.306,101.723z M146.027,101.57l-0.57-0.821
					c0.726-0.503,1.476-0.994,2.243-1.464l0.002-0.364c0.197,0.001,0.393,0.003,0.588,0.007c0.192-0.114,0.385-0.227,0.579-0.339
					l0.209,0.363c0.908,0.037,1.801,0.106,2.667,0.207l-0.115,0.993c-0.994-0.116-2.025-0.188-3.074-0.217
					C147.689,100.457,146.842,101.005,146.027,101.57z M359.258,100.806c-1.182-0.811-2.281-1.603-3.268-2.355l0.605-0.796
					c0.975,0.742,2.061,1.524,3.229,2.326L359.258,100.806z M140.802,100.449l-0.15-0.989c1.361-0.206,2.713-0.354,4.016-0.442
					l0.067,0.998C143.46,100.102,142.136,100.247,140.802,100.449z M237.827,99.999c-1.272-0.344-2.558-0.683-3.859-1.016
					l0.248-0.969c1.305,0.334,2.596,0.674,3.872,1.02L237.827,99.999z M231.064,98.257c-1.277-0.313-2.571-0.62-3.881-0.919
					l0.223-0.975c1.315,0.3,2.614,0.608,3.897,0.922L231.064,98.257z M151.983,98.051l-0.447-0.895
					c1.183-0.591,2.419-1.152,3.673-1.666l0.379,0.925C154.357,96.92,153.144,97.47,151.983,98.051z M399.913,97.234l-0.844-0.536
					c0.706-1.112,1.335-2.273,1.868-3.45l0.91,0.412C401.296,94.88,400.645,96.083,399.913,97.234z M224.262,96.688
					c-1.286-0.278-2.587-0.549-3.906-0.812l0.195-0.98c1.324,0.264,2.631,0.536,3.921,0.814L224.262,96.688z M353.627,96.555
					c-1.104-0.937-2.098-1.87-2.954-2.772l0.725-0.688c0.833,0.877,1.801,1.785,2.876,2.699L353.627,96.555z M158.366,95.361
					l-0.33-0.944c1.242-0.435,2.535-0.84,3.844-1.205l0.268,0.963C160.86,94.535,159.588,94.934,158.366,95.361z M217.418,95.31
					c-1.292-0.241-2.602-0.475-3.927-0.7l0.167-0.986c1.332,0.226,2.645,0.46,3.944,0.703L217.418,95.31z M210.538,94.129
					c-1.298-0.204-2.614-0.399-3.946-0.586l0.139-0.99c1.338,0.188,2.658,0.383,3.962,0.588L210.538,94.129z M165.033,93.445
					l-0.224-0.975c1.288-0.295,2.616-0.56,3.948-0.787l0.168,0.985C167.611,92.893,166.302,93.154,165.033,93.445z M203.626,93.147
					c-1.303-0.166-2.624-0.324-3.961-0.472l0.11-0.994c1.343,0.149,2.668,0.307,3.977,0.474L203.626,93.147z M196.689,92.362
					c-1.308-0.129-2.632-0.25-3.973-0.362l0.083-0.996c1.346,0.112,2.676,0.232,3.989,0.363L196.689,92.362z M171.87,92.229
					l-0.128-0.992c1.309-0.169,2.655-0.31,4.001-0.416l0.079,0.997C174.492,91.922,173.163,92.061,171.87,92.229z M189.733,91.773
					c-1.331-0.089-2.67-0.152-3.977-0.189l0.028-1c1.319,0.038,2.67,0.102,4.015,0.191L189.733,91.773z M178.797,91.633
					l-0.045-0.999c1.318-0.059,2.67-0.089,4.02-0.091l0.001,1C181.438,91.545,180.1,91.575,178.797,91.633z M348.7,91.449
					c-0.288-0.39-0.557-0.781-0.804-1.173c-0.475-0.754-0.927-1.517-1.346-2.269l0.875-0.486c0.409,0.736,0.852,1.483,1.316,2.222
					c0.235,0.372,0.49,0.743,0.763,1.113L348.7,91.449z M402.95,90.815l-0.951-0.31c0.402-1.236,0.717-2.517,0.934-3.807
					l0.986,0.166C403.693,88.203,403.367,89.532,402.95,90.815z M345.166,85.307c-0.587-1.248-1.102-2.51-1.53-3.75l0.945-0.327
					c0.417,1.206,0.919,2.435,1.489,3.652L345.166,85.307z M404.26,83.831l-0.998-0.058c0.03-0.531,0.046-1.061,0.045-1.591
					c0-0.77-0.032-1.556-0.096-2.336l0.996-0.081c0.066,0.807,0.1,1.62,0.1,2.416C404.308,82.73,404.292,83.281,404.26,83.831z
					 M342.769,78.639c-0.332-1.343-0.571-2.689-0.709-4.003l0.994-0.104c0.134,1.268,0.364,2.569,0.686,3.867L342.769,78.639z
					 M402.822,76.925c-0.232-1.27-0.551-2.555-0.949-3.818l0.953-0.301c0.411,1.304,0.741,2.629,0.98,3.939L402.822,76.925z
					 M342.914,71.595l-1-0.01c0.014-1.374,0.142-2.741,0.379-4.06l0.984,0.178C343.05,68.967,342.927,70.276,342.914,71.595z
					 M400.862,70.329c-0.498-1.202-1.074-2.396-1.712-3.551l0.875-0.483c0.656,1.188,1.249,2.416,1.761,3.652L400.862,70.329z
					 M343.987,64.862l-0.951-0.308c0.418-1.294,0.958-2.557,1.607-3.754l0.879,0.476C344.903,62.419,344.387,63.626,343.987,64.862z
					 M397.614,64.249c-0.723-1.09-1.515-2.156-2.354-3.168l0.77-0.638c0.862,1.039,1.676,2.134,2.418,3.253L397.614,64.249z
					 M393.282,58.88c-0.921-0.945-1.898-1.844-2.904-2.671l0.635-0.772c1.034,0.85,2.039,1.774,2.986,2.745L393.282,58.88z
					 M347.087,58.803l-0.807-0.591c0.795-1.086,1.7-2.118,2.691-3.067l0.691,0.722C348.715,56.776,347.848,57.763,347.087,58.803z
					 M388.015,54.432c-1.095-0.752-2.23-1.433-3.375-2.024l0.459-0.889c1.181,0.611,2.353,1.313,3.482,2.087L388.015,54.432z
					 M351.905,53.973l-0.597-0.803c1.074-0.798,2.234-1.526,3.451-2.165l0.465,0.886C354.054,52.505,352.938,53.206,351.905,53.973z
					 M381.959,51.188l-0.117-0.045c-1.194-0.465-2.415-0.871-3.628-1.207l0.267-0.964c1.244,0.345,2.497,0.762,3.723,1.239
					l0.116,0.045L381.959,51.188z M357.902,50.669l-0.365-0.931c1.245-0.488,2.55-0.898,3.879-1.217l0.234,0.973
					C360.365,49.802,359.104,50.198,357.902,50.669z M375.332,49.261c-1.297-0.248-2.612-0.423-3.908-0.521l0.076-0.997
					c1.333,0.101,2.685,0.281,4.02,0.535L375.332,49.261z M364.548,48.947l-0.137-0.99c1.322-0.184,2.685-0.287,4.047-0.306l0.014,1
					C367.15,48.669,365.83,48.769,364.548,48.947z"/>
			</g>
			<g>
				<polygon style="fill:#9AEDEB;" points="99.793,87.725 107.085,91.274 99.793,94.823 96.244,102.115 92.695,94.823 
					85.403,91.274 92.695,87.725 96.244,80.434 				"/>
			</g>
			<g>
				<polygon style="fill:#9AEDEB;" points="120.188,183.644 127.48,187.193 120.188,190.742 116.64,198.034 113.091,190.742 
					105.799,187.193 113.091,183.644 116.64,176.353 				"/>
			</g>
			<g>
				<polygon style="fill:#9AEDEB;" points="268.477,58.144 275.769,61.693 268.477,65.242 264.928,72.534 261.38,65.242 
					254.088,61.693 261.38,58.144 264.928,50.853 				"/>
			</g>
			<g>
				<polygon style="fill:#9AEDEB;" points="172.057,52.921 176.831,55.245 172.057,57.568 169.733,62.342 167.41,57.568 
					162.635,55.245 167.41,52.921 169.733,48.147 				"/>
			</g>
			<g>
				<polygon style="fill:#9AEDEB;" points="428.313,112.019 433.087,114.342 428.313,116.666 425.99,121.44 423.666,116.666 
					418.892,114.342 423.666,112.019 425.99,107.245 				"/>
			</g>
			<g>
				<polygon style="fill:#9AEDEB;" points="250.807,121.733 255.581,124.057 250.807,126.38 248.483,131.154 246.16,126.38 
					241.385,124.057 246.16,121.733 248.483,116.959 				"/>
			</g>
			<g>
				<polygon style="fill:#9AEDEB;" points="385.927,151.311 390.702,153.635 385.927,155.958 383.604,160.733 381.28,155.958 
					376.506,153.635 381.28,151.311 383.604,146.537 				"/>
			</g>
			<g>
				<polygon style="fill:#9AEDEB;" points="52.355,155.671 57.13,157.995 52.355,160.318 50.032,165.092 47.708,160.318 
					42.934,157.995 47.708,155.671 50.032,150.897 				"/>
			</g>
		</g>
	</g>
</g>
</svg>
